# xmcd
#
# Track frame offsets:
#	150
#	10717
#	25077
#	35427
#	46982
#	58502
#	72725
#	91315
#	102757
#	116062
#	126967
#	136875
#
# Disc length: 2114 seconds
# Revision: 1
# Processed by: cddbd v1.5.2PL0 Copyright (c) Steve Scherf et al.
# Submitted via: dBpowerAMP V12.0
#
DISCID=9e08400c
DTITLE=Various Artist - The Best of Bluegrass
DYEAR=2003
DGENRE=Bluegrass
TTITLE0=Alison Krauss - Steel Rails
TTITLE1=Ricky Skaggs - Highway 40 Blues
TTITLE2=Harry McLintock - The Big Rock Candy Mountain
TTITLE3=Emmylou Harris - Roses in the Snow
TTITLE4=Bill Monroe and His Blue Grass Boys - Orange Blossom Special
TTITLE5=Dolly Parton - Mule Skinner Blues
TTITLE6=Hot Tuna - Know You Rider
TTITLE7=The Rice Brothers - That's When I'll Stop Loving You
TTITLE8=The Carter Family - Wabash Cannonball
TTITLE9=Lester Flatt - Foggy Mountain Breakdown
TTITLE10=Ralph Stanley and the Clinch Mountain Boys - Oh Death
TTITLE11=The Nitty Gritty Dirt Band - Will the Circle Be Unbroken
EXTD=
EXTT0=
EXTT1=
EXTT2=
EXTT3=
EXTT4=
EXTT5=
EXTT6=
EXTT7=
EXTT8=
EXTT9=
EXTT10=
EXTT11=
PLAYORDER=
